<?xml version="1.0" standalone="no"?>
<!DOCTYPE svg PUBLIC "-//W3C//DTD SVG 20010904//EN"
 "http://www.w3.org/TR/2001/REC-SVG-20010904/DTD/svg10.dtd">
<svg version="1.0" xmlns="http://www.w3.org/2000/svg"
 width="11811.000000pt" height="7013.000000pt" viewBox="0 0 11811.000000 7013.000000"
 preserveAspectRatio="xMidYMid meet">

<g transform="translate(0.000000,7013.000000) scale(0.100000,-0.100000)"
fill="#000000" stroke="none">
<path d="M9800 65079 c-632 -48 -1303 -250 -1854 -558 -659 -369 -1224 -894
-1653 -1536 -520 -779 -828 -1741 -883 -2755 -7 -144 -5 -504 5 -574 2 -17 7
-67 10 -111 37 -441 186 -932 391 -1283 348 -596 895 -1029 1595 -1265 274
-93 650 -173 904 -192 44 -4 86 -8 93 -11 67 -21 794 -25 1002 -5 796 76 1468
306 2080 714 744 496 1275 1151 1626 2007 41 101 136 374 169 482 l14 48
-1247 0 -1247 0 -39 -113 c-108 -315 -285 -608 -490 -812 -125 -125 -209 -185
-361 -260 -219 -109 -391 -146 -670 -146 -93 0 -213 5 -265 11 -308 38 -558
157 -703 335 -130 160 -216 362 -263 620 -16 82 -19 150 -19 385 0 166 6 329
13 390 84 696 218 1200 438 1643 254 512 605 851 1027 992 153 51 266 68 457
68 91 0 203 -5 249 -12 341 -50 592 -194 748 -429 129 -193 183 -404 183 -714
l0 -138 1229 0 1228 0 7 168 c28 623 -60 1112 -279 1557 -344 700 -956 1154
-1845 1369 -130 32 -371 76 -490 90 -25 3 -83 10 -130 15 -248 29 -774 40
-1030 20z"/>
<path d="M72081 64693 c-18 -104 -41 -235 -51 -293 -11 -58 -93 -526 -184
-1040 -91 -514 -172 -973 -180 -1020 -13 -72 -64 -363 -186 -1055 -12 -66 -32
-181 -45 -255 -47 -265 -415 -2356 -420 -2385 -3 -16 -57 -322 -120 -680 -149
-844 -166 -936 -172 -962 l-5 -23 1299 0 1298 0 32 183 c17 100 88 502 158
892 70 391 166 931 214 1200 l87 490 1416 3 1416 2 16 88 c8 48 31 179 50 292
20 113 47 271 61 353 25 149 32 185 129 752 31 176 57 330 59 343 l4 22 -1413
0 c-1014 0 -1414 3 -1414 11 0 6 52 306 115 667 63 362 117 673 120 692 4 19
8 43 11 53 5 16 98 17 1779 17 976 0 1776 3 1779 8 2 4 32 162 66 352 117 663
190 1066 225 1260 19 107 35 201 35 208 0 9 -621 12 -3073 12 l-3073 0 -33
-187z"/>
<path d="M64827 64823 c-3 -21 -54 -265 -112 -543 -58 -278 -119 -568 -135
-645 -30 -148 -187 -898 -271 -1300 -28 -132 -52 -241 -54 -243 -1 -1 -26 37
-55 87 -78 133 -167 246 -273 348 -311 297 -708 435 -1257 436 -399 1 -726
-76 -1085 -253 -525 -259 -1038 -749 -1380 -1316 -272 -452 -444 -941 -544
-1554 -58 -353 -73 -528 -75 -840 -1 -309 5 -414 35 -590 56 -331 179 -642
347 -880 84 -119 270 -306 385 -387 602 -424 1568 -427 2321 -7 202 113 410
263 590 427 65 58 78 67 73 46 -10 -41 -127 -611 -127 -620 0 -5 341 -9 770
-9 424 0 770 2 770 5 0 3 14 72 31 153 16 81 48 233 69 337 22 105 62 300 90
435 46 224 108 520 486 2350 69 333 136 659 150 725 14 66 81 392 150 725 69
333 152 733 184 890 46 222 345 1667 449 2173 l18 87 -772 0 -772 0 -6 -37z
m-1617 -3217 c353 -82 572 -302 675 -679 124 -457 12 -1271 -249 -1802 -348
-709 -946 -1095 -1586 -1025 -252 28 -431 110 -581 266 -76 81 -113 133 -161
229 -150 297 -164 757 -42 1313 97 445 268 819 510 1118 93 115 257 272 361
347 165 118 378 209 564 242 107 18 413 13 509 -9z"/>
<path d="M50485 64368 c-2 -7 -31 -146 -64 -308 -33 -162 -97 -473 -141 -690
-45 -217 -89 -432 -98 -477 l-16 -83 -400 -2 -401 -3 -28 -135 c-16 -74 -66
-314 -113 -534 -46 -219 -84 -405 -84 -412 0 -12 66 -14 395 -14 239 0 395 -4
395 -9 0 -10 -133 -660 -386 -1881 -69 -333 -168 -812 -220 -1065 -52 -253
-103 -500 -114 -550 -58 -277 -68 -514 -31 -684 75 -341 300 -504 806 -583
128 -20 178 -22 580 -22 401 -1 844 9 853 19 5 4 19 73 151 723 49 238 86 434
82 435 -3 2 -60 0 -126 -5 -190 -12 -394 -10 -479 7 -103 19 -183 61 -221 114
-28 40 -30 48 -30 134 1 74 14 155 67 407 80 376 120 571 324 1555 85 413 185
896 222 1075 l67 325 464 5 465 5 113 535 c62 294 112 541 113 548 0 9 -98 12
-460 12 -253 0 -460 4 -460 8 0 4 27 141 60 303 102 493 149 723 201 979 27
135 52 253 55 263 5 16 -36 17 -766 17 -607 0 -772 -3 -775 -12z"/>
<path d="M93205 64368 c-2 -7 -31 -146 -64 -308 -33 -162 -97 -473 -141 -690
-45 -217 -89 -432 -98 -477 l-16 -83 -400 -2 -401 -3 -28 -135 c-16 -74 -66
-314 -113 -534 -46 -219 -84 -405 -84 -412 0 -12 66 -14 395 -14 239 0 395 -4
395 -9 0 -10 -133 -660 -386 -1881 -69 -333 -168 -812 -220 -1065 -52 -253
-103 -500 -114 -550 -58 -277 -68 -514 -31 -684 75 -341 300 -504 806 -583
128 -20 178 -22 580 -22 401 -1 844 9 853 19 5 4 19 73 151 723 49 238 86 434
82 435 -3 2 -60 0 -126 -5 -190 -12 -394 -10 -479 7 -103 19 -183 61 -221 114
-28 40 -30 48 -30 134 1 74 14 155 67 407 80 376 120 571 324 1555 85 413 185
896 222 1075 l67 325 464 5 465 5 113 535 c62 294 112 541 113 548 0 9 -98 12
-460 12 -253 0 -460 4 -460 8 0 4 27 141 60 303 102 493 149 723 201 979 27
135 52 253 55 263 5 16 -36 17 -766 17 -607 0 -772 -3 -775 -12z"/>
<path d="M17950 62963 c-530 -29 -981 -139 -1407 -343 -360 -172 -668 -394
-968 -694 -517 -518 -859 -1172 -1039 -1981 -154 -696 -141 -1279 40 -1762
296 -793 1052 -1294 2039 -1350 952 -55 1777 177 2460 691 432 325 779 736
1030 1220 215 413 373 922 444 1431 11 77 23 160 26 185 14 97 13 593 -1 707
-60 496 -259 919 -580 1238 -374 371 -857 581 -1484 645 -105 11 -457 19 -560
13z m261 -1326 c199 -47 355 -130 480 -256 316 -318 379 -834 194 -1588 -251
-1017 -741 -1559 -1498 -1658 -597 -77 -1041 116 -1237 539 -81 174 -109 339
-105 616 3 225 29 407 95 675 231 936 665 1488 1296 1650 171 43 263 53 474
50 166 -3 211 -7 301 -28z"/>
<path d="M25735 62963 c-653 -35 -1239 -325 -1692 -838 -65 -74 -119 -131
-121 -126 -1 4 34 183 78 397 44 214 80 394 80 401 0 11 -146 13 -747 11
l-747 -3 -9 -40 c-4 -22 -35 -168 -67 -325 -74 -358 -173 -839 -251 -1215
-137 -663 -183 -883 -274 -1325 -53 -256 -159 -766 -235 -1135 -76 -368 -189
-913 -250 -1210 -61 -297 -113 -548 -116 -558 -5 -16 34 -17 767 -15 l772 3
109 525 c59 289 166 811 237 1160 320 1562 357 1738 387 1845 160 564 558 973
1074 1105 234 60 525 66 726 15 101 -26 220 -91 283 -155 115 -116 160 -245
168 -475 7 -208 1 -244 -212 -1265 -19 -91 -60 -286 -90 -435 -31 -148 -71
-344 -90 -435 -120 -578 -258 -1245 -270 -1305 -8 -38 -37 -180 -64 -313 -28
-134 -51 -250 -51 -258 0 -12 113 -14 767 -12 l767 3 73 350 c39 193 90 438
112 545 22 107 77 371 121 585 45 215 94 453 110 530 16 77 115 556 220 1065
207 996 224 1087 240 1255 75 809 -303 1393 -1025 1579 -211 55 -526 82 -780
69z"/>
<path d="M32918 62965 c-2 -1 -51 -5 -110 -9 -275 -17 -588 -102 -853 -231
-288 -141 -547 -343 -780 -609 -60 -69 -111 -121 -113 -116 -2 5 10 73 27 152
42 197 119 575 127 621 l6 37 -748 -2 -748 -3 -12 -60 c-7 -33 -37 -179 -68
-325 -30 -146 -165 -800 -301 -1455 -135 -654 -250 -1210 -255 -1235 -5 -25
-31 -153 -59 -285 -27 -132 -136 -656 -241 -1165 -182 -881 -254 -1227 -265
-1278 l-5 -22 772 2 772 3 107 525 c60 289 124 602 143 695 34 165 68 333 162
790 25 121 60 294 79 385 19 91 75 363 125 605 118 576 139 648 257 877 259
508 751 807 1328 808 432 1 668 -138 757 -445 21 -72 23 -100 22 -270 -1 -211
0 -205 -103 -705 -34 -162 -75 -358 -91 -435 -16 -77 -58 -284 -95 -460 -36
-176 -122 -592 -191 -925 -69 -333 -138 -668 -154 -745 -16 -77 -50 -239 -75
-360 -25 -121 -52 -248 -59 -283 l-14 -62 771 2 771 3 52 250 c28 138 65 318
82 400 72 348 255 1231 282 1360 84 407 122 595 269 1301 88 424 167 822 176
885 89 636 -76 1148 -470 1454 -222 173 -482 270 -841 315 -80 10 -428 22
-436 15z"/>
<path d="M39089 62966 c-2 -2 -56 -6 -120 -10 -1158 -62 -2149 -731 -2717
-1833 -329 -640 -532 -1491 -532 -2233 0 -617 173 -1093 524 -1446 174 -175
337 -288 555 -385 338 -150 714 -224 1191 -233 411 -8 766 42 1135 161 748
241 1398 754 1791 1415 58 99 144 261 144 273 0 3 -350 5 -778 5 l-779 0 -12
-27 c-43 -95 -155 -224 -268 -309 -168 -127 -386 -217 -626 -260 -107 -19
-371 -21 -500 -4 -277 37 -491 145 -622 311 -139 176 -201 378 -212 681 -5
155 8 361 26 410 6 18 83 18 1998 18 1892 0 1992 1 1997 17 20 68 100 479 120
623 41 290 50 412 50 705 0 328 -17 484 -80 736 -191 766 -758 1235 -1634
1353 -184 25 -634 47 -651 32z m32 -1276 c217 -22 388 -85 516 -189 113 -93
202 -244 249 -426 23 -89 26 -125 31 -332 l6 -233 -1191 0 -1191 0 40 96 c328
789 847 1153 1540 1084z"/>
<path d="M45660 62960 c-677 -49 -1242 -250 -1733 -618 -748 -560 -1238 -1405
-1457 -2513 -31 -159 -74 -449 -89 -609 -10 -100 -8 -653 2 -705 3 -16 11 -66
17 -110 16 -112 72 -322 115 -435 258 -674 868 -1071 1745 -1137 169 -13 521
-7 680 11 391 45 722 142 1075 316 650 320 1189 864 1509 1525 57 116 152 342
171 403 l6 22 -778 0 -778 0 -34 -86 c-187 -465 -604 -820 -1070 -911 -123
-24 -342 -23 -446 1 -274 63 -466 255 -554 554 -86 289 -69 757 45 1252 270
1168 789 1750 1561 1750 264 0 483 -80 608 -223 115 -132 193 -360 211 -622
l7 -95 778 0 778 0 5 43 c10 84 17 238 17 379 -2 389 -103 742 -293 1020 -299
438 -794 702 -1447 773 -176 19 -495 26 -651 15z"/>
<path d="M56220 62964 c-842 -50 -1524 -342 -2099 -899 -586 -568 -990 -1402
-1151 -2378 -59 -360 -86 -818 -61 -1057 53 -517 228 -912 537 -1210 256 -247
535 -396 929 -495 524 -133 1149 -136 1671 -10 874 211 1616 751 2054 1494 63
108 140 254 140 266 0 3 -350 5 -778 5 l-777 0 -25 -46 c-145 -275 -507 -494
-911 -554 -114 -16 -377 -15 -498 4 -469 72 -725 331 -795 809 -24 160 -19
436 10 580 l6 27 1994 0 1994 0 5 23 c75 329 116 562 145 817 5 52 12 115 15
140 3 25 8 142 11 260 28 985 -303 1648 -990 1984 -234 115 -542 197 -831 222
-44 3 -89 8 -100 10 -31 6 -422 12 -495 8z m81 -1274 c284 -29 503 -135 623
-303 130 -182 176 -364 176 -694 l0 -183 -1190 0 -1189 0 40 96 c220 528 516
859 905 1008 192 73 404 99 635 76z"/>
<path d="M81890 62968 c-3 -3 -70 -8 -150 -12 -163 -8 -178 -9 -378 -36 -394
-54 -739 -159 -1049 -320 -600 -311 -1002 -811 -1198 -1489 -18 -64 -36 -133
-40 -154 l-7 -37 726 0 c683 0 727 1 733 18 25 69 102 219 156 300 166 254
384 409 665 473 116 26 341 35 513 20 464 -42 647 -198 626 -534 -17 -275
-189 -461 -520 -562 -45 -13 -106 -29 -136 -35 -43 -8 -544 -81 -721 -105 -19
-3 -145 -20 -280 -39 -135 -19 -299 -42 -365 -51 -610 -83 -1105 -308 -1497
-683 -380 -364 -592 -782 -672 -1327 -51 -344 -14 -642 109 -885 101 -200 291
-385 511 -497 245 -126 517 -184 864 -187 378 -2 679 53 1015 186 326 130 604
306 953 605 l43 37 -8 -90 c-9 -102 -9 -543 0 -568 6 -15 76 -16 838 -14 l832
3 22 106 22 106 -46 34 c-57 42 -106 114 -129 188 -23 75 -22 334 1 476 17 99
85 434 278 1360 55 264 104 500 109 525 5 25 30 144 55 265 45 214 86 412 222
1065 64 312 65 317 68 500 4 206 -7 304 -50 440 -150 472 -601 772 -1315 874
-58 8 -154 20 -215 26 -121 12 -577 25 -585 18z m235 -3554 c-41 -203 -87
-403 -101 -444 -74 -212 -187 -394 -331 -530 -270 -255 -553 -410 -878 -480
-137 -30 -437 -39 -542 -16 -158 33 -298 134 -356 257 -82 175 -51 495 71 719
66 121 191 248 316 319 150 85 373 166 626 225 58 13 276 59 484 100 396 79
535 118 696 194 47 22 86 37 88 33 1 -4 -31 -174 -73 -377z"/>
<path d="M88380 62960 c-677 -49 -1242 -250 -1733 -618 -748 -560 -1238 -1405
-1457 -2513 -31 -159 -74 -449 -89 -609 -10 -100 -8 -653 2 -705 3 -16 11 -66
17 -110 16 -112 72 -322 115 -435 258 -674 868 -1071 1745 -1137 169 -13 521
-7 680 11 391 45 722 142 1075 316 650 320 1189 864 1509 1525 57 116 152 342
171 403 l6 22 -778 0 -778 0 -34 -86 c-187 -465 -604 -820 -1070 -911 -123
-24 -342 -23 -446 1 -274 63 -466 255 -554 554 -86 289 -69 757 45 1252 270
1168 789 1750 1561 1750 264 0 483 -80 608 -223 115 -132 193 -360 211 -622
l7 -95 778 0 778 0 5 43 c10 84 17 238 17 379 -2 389 -103 742 -293 1020 -299
438 -794 702 -1447 773 -176 19 -495 26 -651 15z"/>
<path d="M99270 62964 c-961 -55 -1730 -390 -2375 -1038 -489 -491 -822 -1103
-1009 -1853 -148 -592 -174 -1117 -80 -1573 128 -624 515 -1124 1089 -1406
388 -191 793 -271 1350 -268 429 2 813 65 1199 195 792 267 1476 835 1906
1584 256 444 437 993 520 1575 31 217 35 280 35 565 -1 301 -12 401 -70 630
-110 438 -339 799 -683 1076 -330 267 -767 436 -1277 494 -130 15 -479 26
-605 19z m155 -1309 c256 -39 432 -121 586 -274 154 -153 254 -374 288 -636
17 -136 6 -417 -24 -610 -49 -315 -151 -671 -265 -933 -328 -746 -871 -1109
-1615 -1078 -219 9 -350 39 -510 118 -178 87 -311 221 -404 405 -162 323 -159
822 9 1434 266 972 762 1493 1500 1578 122 14 328 12 435 -4z"/>
<path d="M106840 62960 c-394 -39 -778 -240 -1135 -595 -166 -165 -373 -421
-520 -643 -26 -40 -49 -71 -50 -70 -2 2 24 129 57 283 32 154 76 363 98 465
21 102 50 236 63 298 l24 112 -736 0 -736 0 -154 -748 c-298 -1445 -633 -3065
-667 -3227 -14 -66 -43 -205 -64 -310 -53 -261 -309 -1495 -315 -1523 l-5 -22
771 2 772 3 93 450 c52 248 111 538 133 645 23 107 61 294 86 415 56 269 85
410 169 815 146 710 168 810 196 915 215 809 685 1297 1364 1417 99 18 163 22
351 22 127 1 279 -1 339 -4 l109 -5 38 180 c42 199 57 272 163 775 40 190 72
346 71 347 -3 7 -453 9 -515 3z"/>
<path d="M108050 62802 c0 -4 18 -127 40 -273 22 -145 54 -352 70 -459 29
-194 163 -1078 201 -1325 11 -71 35 -233 54 -360 65 -436 355 -2350 365 -2410
5 -33 39 -256 75 -495 36 -239 77 -508 91 -598 l24 -163 -36 -82 c-68 -153
-196 -396 -255 -486 -133 -203 -305 -299 -616 -346 -126 -20 -477 -28 -572
-14 -35 5 -66 8 -68 6 -1 -2 -30 -134 -62 -293 -33 -159 -85 -410 -116 -559
-78 -375 -75 -359 -62 -367 6 -3 54 -10 106 -13 53 -4 110 -9 126 -12 61 -9
653 -11 750 -3 519 46 904 195 1188 461 316 295 759 960 1312 1969 65 118 130
238 145 265 15 28 52 95 83 150 118 216 784 1428 862 1570 103 187 328 598
1005 1830 625 1140 591 1078 623 1135 14 25 74 135 134 245 61 110 160 291
222 402 61 112 114 209 117 218 5 13 -84 15 -805 15 l-811 0 -44 -92 c-24 -51
-102 -212 -174 -358 -71 -146 -310 -636 -532 -1090 -222 -454 -473 -969 -559
-1145 -86 -176 -303 -620 -481 -986 -179 -367 -326 -666 -327 -665 -2 2 -16
158 -28 311 -5 74 -62 764 -70 850 -2 28 -6 82 -9 120 -10 116 -36 436 -41
495 -3 30 -23 276 -45 545 -22 270 -42 513 -44 540 -3 28 -7 82 -10 120 -6 78
-24 292 -31 370 -2 28 -7 79 -9 115 -7 76 -9 100 -41 494 -14 164 -25 316 -25
337 l0 39 -860 0 c-473 0 -860 -4 -860 -8z"/>
<path d="M23920 53694 c-36 -2 -177 -8 -315 -14 -137 -6 -268 -13 -290 -15
-22 -2 -87 -7 -145 -10 -260 -15 -731 -60 -1100 -106 -2579 -317 -5134 -1161
-7405 -2446 -1964 -1112 -3794 -2599 -5321 -4323 -1498 -1693 -2783 -3710
-3699 -5805 -646 -1479 -1146 -3067 -1494 -4747 -239 -1152 -423 -2473 -491
-3528 -6 -91 -12 -192 -15 -225 -2 -33 -6 -116 -10 -185 -3 -69 -8 -159 -10
-200 -11 -169 -25 -977 -20 -1135 2 -93 7 -287 11 -430 3 -143 7 -282 9 -310
2 -27 7 -111 10 -185 14 -306 69 -939 110 -1245 8 -60 17 -132 21 -160 63
-513 204 -1248 345 -1795 525 -2041 1428 -3757 2760 -5246 290 -324 813 -832
1169 -1135 1628 -1386 3634 -2354 6020 -2908 1002 -232 2159 -401 3260 -476
252 -17 377 -25 470 -29 58 -3 157 -8 220 -11 644 -32 1912 -32 2360 0 36 2
128 7 205 10 77 3 160 8 185 10 25 2 88 7 140 10 254 16 815 68 1030 95 41 5
98 12 125 15 94 11 420 55 515 70 934 143 1639 292 2435 511 2304 637 4393
1663 6330 3109 2195 1638 3939 3654 5269 6090 130 238 455 878 543 1070 23 50
60 131 83 180 351 760 690 1637 964 2485 77 240 226 729 226 743 0 4 -2473 6
-5496 5 l-5495 -3 -103 -310 c-199 -598 -376 -1029 -635 -1545 -656 -1308
-1572 -2394 -2576 -3055 -876 -576 -1905 -906 -3045 -974 -420 -25 -907 -20
-1339 14 -1256 100 -2234 435 -2956 1011 -153 122 -412 383 -539 544 -255 320
-493 719 -673 1125 -280 632 -474 1442 -538 2245 -3 41 -8 93 -10 115 -19 186
-27 584 -21 1015 4 267 8 501 10 520 2 19 7 89 10 155 9 156 35 537 41 595 2
25 7 70 9 100 14 153 18 197 21 220 2 14 6 57 10 95 3 39 8 86 11 105 2 19 11
96 19 170 248 2165 743 4219 1419 5891 856 2120 2047 3708 3504 4673 901 597
1843 923 2959 1022 306 28 1042 21 1328 -11 22 -3 103 -12 180 -20 77 -9 223
-29 325 -46 932 -151 1669 -459 2317 -969 139 -109 495 -464 605 -602 580
-732 885 -1548 994 -2658 12 -121 18 -326 23 -775 l6 -610 5422 -2 5421 -3 5
448 c3 246 8 463 10 482 41 274 44 1096 7 1675 -114 1766 -458 3264 -1067
4640 -894 2019 -2386 3681 -4348 4842 -1681 995 -3815 1665 -6240 1958 -395
48 -510 60 -800 84 -132 12 -262 23 -290 25 -119 11 -258 21 -510 36 -304 18
-338 20 -510 25 -93 4 -192 9 -220 11 -55 6 -1640 13 -1745 8z"/>
<path d="M45050 52778 c0 -5 -39 -223 -79 -448 -35 -195 -86 -487 -176 -1000
-13 -74 -42 -236 -64 -360 -22 -124 -63 -353 -90 -510 -27 -157 -81 -463 -120
-680 -38 -217 -82 -462 -96 -545 -14 -82 -33 -188 -41 -235 -9 -47 -19 -107
-24 -135 -5 -27 -95 -536 -200 -1130 -105 -594 -208 -1181 -230 -1305 -21
-124 -70 -403 -109 -620 -38 -217 -92 -523 -120 -680 -27 -157 -95 -539 -150
-850 -55 -311 -109 -617 -120 -680 -11 -63 -155 -880 -320 -1815 -165 -935
-307 -1738 -315 -1785 -8 -47 -47 -265 -85 -485 -39 -220 -101 -569 -137 -775
-36 -206 -81 -460 -99 -565 -19 -104 -41 -228 -49 -275 -8 -47 -127 -722 -265
-1500 -263 -1492 -288 -1634 -326 -1850 -13 -74 -159 -900 -324 -1835 -165
-935 -309 -1752 -320 -1815 -11 -63 -58 -331 -105 -595 -47 -264 -94 -532
-105 -595 -22 -127 -112 -638 -166 -940 -35 -197 -69 -393 -85 -485 -26 -151
-512 -2903 -524 -2970 -9 -44 -101 -566 -205 -1160 -105 -594 -235 -1334 -290
-1645 -55 -311 -109 -617 -120 -680 -11 -63 -65 -369 -120 -680 -98 -552 -144
-814 -161 -915 -5 -27 -47 -266 -94 -530 -83 -469 -129 -729 -146 -830 -32
-188 -161 -914 -165 -932 l-5 -23 5715 0 5715 0 5 23 c3 12 16 83 29 157 38
213 323 1817 422 2370 25 140 60 343 79 450 19 107 46 258 60 335 41 231 82
461 110 620 15 83 37 209 50 280 14 72 33 182 44 245 11 63 49 282 86 485 36
204 88 496 115 650 28 154 54 305 60 335 16 85 62 343 149 835 206 1164 267
1506 327 1840 35 198 71 398 79 445 8 47 33 186 55 310 22 124 54 299 70 390
16 91 36 203 44 250 8 47 38 211 65 365 27 154 111 624 186 1045 74 421 138
777 141 792 l6 28 6246 2 6246 3 12 70 c23 132 93 540 133 770 22 127 56 324
76 438 19 115 53 311 75 435 21 125 53 308 70 407 17 99 39 230 50 290 11 61
33 189 49 285 56 323 239 1383 286 1655 14 77 36 205 49 285 14 80 45 262 70
405 57 330 101 582 131 760 22 127 168 974 296 1715 28 162 63 365 79 450 15
85 25 158 23 163 -2 4 -2811 7 -6241 7 -3584 0 -6238 4 -6240 9 -2 5 43 267
98 582 147 835 251 1432 410 2334 271 1547 370 2110 415 2365 45 253 107 607
147 840 17 102 34 188 38 192 3 5 3532 8 7842 8 4310 0 7839 4 7842 8 3 5 18
85 35 178 29 168 139 783 187 1049 14 77 34 192 45 255 11 63 27 149 35 190
12 65 186 1040 228 1280 8 47 98 551 200 1120 102 569 192 1073 200 1120 8 47
103 578 211 1180 107 602 220 1235 250 1405 31 171 58 320 60 333 l5 22
-13560 0 c-7458 0 -13560 -1 -13560 -2z"/>
<path d="M73190 52776 c0 -3 119 -250 330 -681 173 -354 315 -645 422 -865
159 -324 506 -1035 636 -1300 63 -129 161 -329 217 -445 238 -488 318 -652
420 -860 59 -121 151 -310 205 -420 54 -110 153 -312 220 -450 67 -137 164
-335 215 -440 248 -509 301 -618 415 -850 67 -137 157 -322 200 -410 43 -88
137 -281 210 -430 134 -273 443 -905 640 -1310 59 -121 248 -508 420 -860 172
-352 366 -748 430 -880 595 -1219 749 -1534 858 -1755 68 -140 162 -331 207
-425 46 -93 136 -278 200 -410 65 -132 164 -334 220 -450 56 -115 155 -318
220 -450 65 -132 152 -312 195 -400 43 -88 142 -290 220 -450 78 -159 168
-344 200 -410 32 -66 237 -484 455 -930 218 -445 402 -824 407 -841 12 -35
160 141 -1897 -2254 -466 -542 -3079 -3587 -4304 -5015 -382 -445 -817 -952
-966 -1125 -232 -270 -1161 -1352 -3580 -4171 -286 -333 -964 -1123 -1506
-1755 -543 -632 -1500 -1747 -2128 -2479 l-1141 -1330 6412 -3 6413 -3 32 38
c17 21 253 333 524 693 707 941 1480 1968 1794 2385 149 198 471 626 715 950
593 789 1136 1510 1520 2020 482 641 2129 2828 2523 3353 138 183 253 329 257
325 4 -4 182 -449 395 -988 597 -1508 1276 -3223 1742 -4400 107 -269 235
-591 284 -715 49 -124 394 -997 768 -1940 l679 -1715 6416 -3 c3529 -1 6416 0
6416 2 0 4 -69 151 -160 341 -34 72 -84 175 -110 230 -26 55 -125 262 -220
460 -95 198 -196 410 -225 470 -29 61 -180 376 -335 700 -156 325 -304 635
-330 690 -26 55 -78 163 -115 240 -37 77 -91 190 -120 250 -29 61 -77 162
-108 225 -30 63 -103 216 -162 340 -59 124 -137 286 -173 360 -129 269 -185
387 -232 485 -26 55 -74 156 -107 225 -33 69 -158 330 -278 580 -120 250 -247
516 -283 590 -35 74 -86 180 -112 235 -26 55 -125 262 -220 460 -236 492 -285
596 -335 700 -23 50 -72 151 -107 225 -36 74 -215 448 -398 830 -183 382 -361
754 -395 825 -34 72 -158 330 -275 575 -223 466 -263 550 -455 950 -65 135
-137 286 -160 335 -23 50 -70 146 -103 215 -97 204 -850 1775 -907 1895 -101
211 -264 551 -340 710 -43 88 -94 196 -115 240 -21 44 -93 195 -160 335 -67
140 -144 300 -170 355 -26 55 -100 210 -165 345 -65 135 -141 295 -170 355
-50 104 -199 416 -343 715 -35 74 -86 180 -112 235 -66 138 -242 507 -337 705
-44 91 -135 280 -202 422 l-123 256 1523 1734 c838 953 1994 2269 2569 2923
575 655 1534 1746 2131 2425 1540 1753 3598 4096 4819 5485 575 655 1486 1692
2025 2305 539 613 1130 1286 1314 1495 l334 380 -6414 3 c-5122 2 -6416 -1
-6425 -10 -7 -7 -479 -650 -1050 -1428 -1114 -1519 -2150 -2931 -3055 -4165
-1490 -2030 -2151 -2931 -2238 -3050 -52 -71 -115 -156 -139 -188 l-45 -59
-132 349 c-464 1219 -910 2390 -1056 2773 -93 245 -625 1644 -1183 3110
l-1013 2665 -6417 3 c-3529 1 -6416 0 -6416 -2z"/>
<path d="M32565 14958 c-2 -7 -13 -58 -24 -113 -24 -121 -111 -542 -266 -1290
-64 -308 -143 -688 -175 -845 -32 -157 -118 -571 -190 -920 -72 -349 -147
-711 -166 -805 -19 -93 -44 -212 -55 -264 -11 -52 -63 -302 -115 -555 -52
-254 -108 -524 -124 -601 -16 -77 -57 -273 -90 -435 -151 -731 -197 -953 -315
-1525 -122 -592 -191 -921 -199 -957 -4 -17 40 -18 813 -18 l816 0 58 283
c139 679 443 2161 538 2622 39 187 90 438 115 558 69 340 152 565 289 781 222
353 578 603 978 686 216 45 479 49 657 11 276 -61 428 -199 502 -456 20 -71
22 -102 22 -265 0 -208 -5 -241 -90 -650 -30 -146 -82 -393 -114 -550 -32
-157 -140 -679 -240 -1160 -99 -481 -194 -938 -210 -1015 -16 -77 -60 -294
-99 -482 -39 -188 -71 -346 -71 -352 0 -8 241 -11 813 -11 l813 0 41 203 c97
468 348 1685 559 2702 47 226 117 563 155 750 38 187 83 403 99 480 69 326 85
481 77 739 -6 213 -24 319 -83 495 -135 405 -438 702 -866 849 -257 89 -441
116 -793 116 -354 0 -555 -30 -852 -129 -381 -127 -675 -315 -1028 -657 -108
-105 -154 -144 -150 -127 5 23 228 1099 300 1449 63 305 295 1425 300 1448 l5
22 -815 0 c-644 0 -816 -3 -820 -12z"/>
<path d="M78330 14870 c-217 -21 -341 -41 -527 -86 -440 -107 -832 -299 -1194
-585 -135 -106 -421 -395 -525 -529 -333 -429 -566 -917 -714 -1495 -23 -88
-44 -168 -46 -177 -5 -17 38 -18 800 -18 l806 0 6 28 c198 879 571 1351 1167
1473 200 41 455 36 630 -13 278 -76 496 -286 570 -548 71 -250 44 -612 -69
-905 -152 -395 -439 -725 -987 -1136 -263 -197 -545 -383 -1006 -662 -830
-502 -1393 -906 -1855 -1332 -561 -518 -915 -1058 -1141 -1741 -38 -114 -135
-478 -135 -505 0 -5 1109 -9 2835 -9 2579 0 2835 1 2835 16 0 9 32 169 70 357
39 188 102 497 141 687 38 190 72 353 75 363 5 16 -85 17 -1788 17 l-1793 0
95 96 c230 232 557 484 940 724 47 29 232 138 413 242 933 536 1519 942 2015
1397 556 511 879 1084 991 1756 59 357 56 780 -10 1080 -174 805 -808 1344
-1739 1479 -239 35 -635 46 -860 26z"/>
<path d="M93510 14874 c-19 -2 -84 -9 -145 -15 -438 -44 -883 -181 -1270 -392
-433 -235 -847 -590 -1136 -972 -369 -487 -585 -1048 -681 -1769 -26 -193 -31
-649 -10 -801 59 -420 188 -727 417 -989 277 -316 661 -511 1165 -592 150 -24
605 -29 755 -8 294 40 601 140 875 285 113 60 344 212 453 299 49 39 77 55 73
43 -3 -10 -24 -81 -46 -158 -184 -635 -450 -1205 -717 -1535 -135 -167 -348
-347 -506 -427 -90 -45 -220 -91 -327 -114 -89 -20 -134 -23 -290 -24 -217 0
-270 10 -395 70 -214 102 -339 310 -377 625 -6 52 -16 101 -21 107 -7 10 -187
13 -798 13 -434 0 -789 -3 -790 -7 0 -5 -3 -17 -6 -28 -9 -39 -12 -491 -2
-565 41 -326 148 -604 318 -825 281 -366 705 -584 1286 -662 104 -14 207 -17
520 -18 357 0 403 2 540 23 706 108 1270 392 1780 897 706 698 1212 1734 1549
3170 94 405 187 953 211 1250 4 44 9 91 11 105 14 90 26 470 21 670 -14 547
-96 920 -287 1305 -112 225 -190 335 -355 501 -237 238 -496 379 -860 469
-214 52 -347 67 -645 70 -151 2 -291 1 -310 -1z m249 -1370 c335 -76 574 -325
661 -688 67 -278 33 -673 -90 -1047 -130 -396 -348 -697 -665 -920 -258 -181
-584 -262 -924 -229 -708 68 -964 531 -780 1410 68 328 180 605 343 850 90
136 295 343 416 422 161 105 295 161 466 197 136 28 139 28 314 29 127 0 174
-5 259 -24z"/>
<path d="M101104 14808 c-155 -229 -449 -545 -654 -705 -532 -413 -1118 -622
-1747 -623 -119 0 -123 -1 -128 -22 -3 -13 -46 -221 -96 -463 -49 -242 -99
-482 -109 -534 -11 -52 -20 -98 -20 -103 0 -4 445 -8 989 -8 l988 0 -39 -187
c-21 -104 -102 -494 -179 -868 -77 -374 -169 -819 -204 -990 -35 -170 -96
-465 -135 -655 -39 -190 -82 -399 -96 -465 -14 -66 -47 -228 -74 -360 -59
-287 -122 -594 -364 -1764 -47 -228 -86 -418 -86 -423 0 -4 371 -8 825 -8 494
0 825 4 825 9 0 5 24 128 54 273 142 689 490 2369 517 2498 17 80 41 197 54
260 13 63 37 180 54 260 34 164 367 1773 557 2690 175 848 181 878 214 1035
100 479 250 1207 250 1217 0 4 -303 8 -673 8 l-673 0 -50 -72z"/>
<path d="M84165 14728 c-43 -118 -1525 -4470 -1525 -4477 0 -7 25 -11 63 -12
34 0 71 -2 82 -4 11 -1 72 -6 135 -9 116 -7 355 -22 485 -31 57 -4 291 -18
618 -38 l48 -3 117 116 c135 134 250 215 427 300 372 180 776 217 1086 101
282 -106 491 -395 543 -752 61 -416 -78 -1045 -318 -1438 -89 -146 -160 -236
-286 -361 -265 -265 -544 -392 -890 -407 -227 -10 -426 25 -590 104 -80 38
-108 59 -181 132 -54 54 -100 112 -124 155 -88 159 -142 390 -147 634 l-1 92
-822 0 -822 0 -6 -82 c-10 -124 0 -427 18 -563 104 -796 532 -1361 1228 -1619
521 -194 1264 -205 1952 -29 960 245 1804 914 2273 1803 345 653 509 1514 405
2125 -118 695 -582 1246 -1228 1458 -254 84 -462 111 -779 104 -127 -3 -249
-8 -271 -12 -176 -28 -247 -42 -365 -71 -255 -63 -491 -151 -739 -275 -86 -43
-156 -77 -157 -76 -1 1 13 40 30 87 18 47 167 446 331 888 l298 802 1693 0
1693 0 10 53 c128 635 244 1206 254 1255 l14 62 -2274 0 c-1810 0 -2275 -3
-2278 -12z"/>
<path d="M14280 13646 c0 -4 113 -237 650 -1336 112 -228 251 -514 310 -635
59 -121 250 -512 425 -870 624 -1277 577 -1176 562 -1194 -29 -34 -889 -1037
-1438 -1676 -316 -368 -889 -1037 -1274 -1485 -384 -448 -768 -895 -853 -992
l-153 -178 1543 0 1543 0 216 288 c1188 1579 1539 2043 1546 2042 4 -1 29 -54
54 -118 25 -64 225 -569 444 -1122 219 -553 406 -1024 414 -1047 l16 -43 1542
0 1542 0 -48 103 c-27 56 -79 165 -116 242 -37 77 -89 185 -115 240 -26 55
-175 366 -330 690 -155 325 -308 644 -340 710 -149 312 -620 1296 -682 1425
-39 80 -85 177 -103 215 -18 39 -103 216 -189 395 -133 277 -153 326 -142 340
13 15 2475 2819 3131 3565 198 226 366 418 374 428 13 16 -70 17 -1527 17
l-1541 0 -278 -379 c-153 -209 -505 -688 -782 -1066 -277 -377 -506 -683 -510
-680 -3 4 -187 482 -408 1063 l-402 1057 -1540 3 c-848 1 -1541 0 -1541 -2z"/>
<path d="M9180 12989 c-849 -70 -1540 -379 -2124 -948 -557 -545 -943 -1273
-1149 -2171 -109 -473 -166 -1054 -137 -1408 50 -619 276 -1098 675 -1430 430
-359 1016 -534 1795 -536 277 0 395 9 636 49 589 99 1134 345 1624 733 138
109 420 397 530 540 118 153 248 356 329 511 33 65 61 121 61 125 0 3 -369 6
-820 6 l-820 0 -16 -28 c-98 -161 -194 -265 -331 -360 -247 -168 -509 -249
-836 -259 -289 -9 -494 25 -680 115 -225 108 -369 274 -451 522 -54 166 -70
275 -68 495 0 105 7 233 14 285 l13 95 2114 5 2115 5 18 80 c194 869 221 1557
83 2106 -149 590 -495 1013 -1022 1248 -217 98 -499 171 -788 206 -152 19
-609 27 -765 14z m255 -1349 c306 -44 524 -179 649 -402 96 -172 146 -446 131
-717 l-7 -126 -1254 3 c-690 1 -1254 4 -1254 7 0 16 73 182 132 300 269 540
629 841 1113 930 84 16 393 18 490 5z"/>
<path d="M27005 12963 c-721 -50 -1306 -254 -1838 -643 -219 -160 -494 -425
-671 -645 -521 -650 -850 -1520 -972 -2575 -21 -190 -29 -584 -15 -749 70
-784 410 -1325 1029 -1635 258 -129 612 -217 978 -243 158 -12 499 -8 644 6
573 56 1089 236 1550 538 545 358 959 828 1249 1418 83 169 184 422 177 441
-5 12 -130 14 -820 14 l-815 0 -21 -57 c-36 -97 -138 -288 -203 -380 -81 -115
-257 -290 -377 -375 -162 -115 -356 -203 -540 -243 -103 -22 -350 -31 -448
-15 -378 60 -621 346 -686 808 -71 508 108 1420 393 2003 124 254 229 407 391
569 252 253 519 373 882 396 113 7 277 -7 378 -32 36 -8 107 -36 159 -62 250
-121 381 -379 416 -814 l7 -88 823 0 823 0 8 98 c13 159 11 537 -5 637 -53
348 -163 627 -339 860 -61 81 -201 224 -287 295 -390 320 -956 485 -1645 478
-102 -2 -203 -4 -225 -5z"/>
<path d="M42580 12963 c-67 -3 -354 -29 -425 -39 -393 -51 -829 -184 -1135
-346 -548 -290 -935 -720 -1163 -1293 -51 -126 -147 -435 -147 -470 0 -12 113
-15 768 -15 l768 0 39 92 c78 181 214 381 332 488 132 119 295 207 478 256 92
25 117 27 330 30 555 7 822 -105 891 -376 22 -87 15 -258 -15 -351 -57 -179
-208 -323 -429 -408 -138 -53 -265 -77 -792 -151 -278 -39 -617 -87 -755 -106
-137 -19 -306 -46 -375 -60 -551 -110 -1021 -354 -1390 -724 -311 -310 -501
-646 -610 -1074 -63 -247 -75 -342 -75 -586 0 -234 9 -299 66 -475 65 -203
184 -379 349 -519 234 -198 507 -306 900 -357 125 -17 476 -16 615 0 612 72
1166 327 1687 777 61 53 109 90 105 82 -3 -9 -11 -78 -18 -154 -12 -137 -7
-501 7 -537 6 -16 67 -17 885 -17 823 0 878 2 883 18 17 55 45 217 38 220 -5
1 -27 16 -50 33 -148 109 -187 363 -116 759 15 86 112 556 315 1535 61 292
123 593 139 670 81 393 113 549 155 750 26 121 52 252 60 290 8 39 25 124 40
190 14 66 32 164 40 217 20 129 19 396 0 518 -29 178 -109 369 -208 497 -104
136 -301 295 -466 377 -256 129 -565 205 -1011 251 -64 7 -614 13 -710 8z
m425 -3469 c-13 -65 -50 -242 -80 -393 -62 -307 -91 -403 -166 -553 -101 -202
-189 -311 -379 -470 -368 -308 -801 -465 -1230 -445 -207 10 -331 53 -438 152
-131 121 -178 303 -141 548 52 349 239 597 565 748 217 100 431 158 1009 274
521 104 624 133 813 229 37 19 68 33 69 32 2 -1 -8 -56 -22 -122z"/>
<path d="M50985 12956 c-427 -47 -797 -178 -1130 -401 -212 -141 -361 -273
-558 -493 -60 -68 -111 -121 -113 -119 -3 2 34 190 81 418 47 228 85 422 85
432 0 16 -44 17 -790 17 -434 -1 -790 -2 -790 -4 0 -1 -18 -90 -41 -197 -22
-107 -60 -291 -84 -409 -24 -118 -67 -325 -95 -460 -79 -378 -165 -795 -235
-1135 -35 -170 -89 -431 -120 -580 -31 -148 -82 -398 -115 -555 -180 -872
-326 -1580 -365 -1765 -24 -115 -74 -356 -110 -535 -37 -179 -77 -373 -90
-432 l-22 -108 816 0 816 0 229 1118 c126 614 271 1322 323 1572 184 901 205
996 249 1130 190 582 617 986 1169 1109 130 29 330 44 465 37 475 -28 704
-241 727 -676 11 -208 1 -266 -207 -1270 -33 -162 -78 -380 -100 -485 -21
-104 -89 -431 -150 -725 -61 -294 -128 -620 -150 -725 -21 -104 -80 -387 -130
-627 -49 -241 -90 -442 -90 -448 0 -7 267 -10 813 -10 l812 0 74 358 c95 459
189 915 201 972 5 25 32 155 60 290 28 135 91 441 141 680 49 239 116 563 149
720 195 942 271 1318 287 1420 26 166 26 555 -1 695 -87 463 -343 812 -741
1006 -183 90 -360 141 -605 175 -147 21 -516 26 -665 10z"/>
<path d="M58040 12959 c-494 -47 -981 -235 -1411 -545 -301 -216 -618 -529
-851 -839 -476 -635 -749 -1366 -864 -2315 -19 -156 -26 -654 -11 -800 30
-305 108 -580 232 -827 91 -180 177 -302 315 -446 218 -228 447 -371 755 -472
259 -86 496 -120 825 -118 234 0 399 20 589 68 320 81 621 234 871 443 124
104 307 294 395 410 39 50 71 88 73 84 5 -15 -189 -959 -218 -1060 -212 -733
-623 -1105 -1317 -1192 -132 -17 -513 -14 -662 6 -225 29 -385 81 -476 157
-108 89 -171 226 -176 387 l-2 50 -888 0 -887 0 -8 -77 c-11 -120 2 -365 26
-475 95 -448 374 -779 845 -1004 235 -112 586 -210 895 -249 25 -3 56 -7 70
-10 14 -2 54 -7 90 -10 429 -38 862 -34 1245 10 1428 165 2327 878 2765 2195
88 264 123 412 315 1335 97 468 212 1021 255 1230 44 209 120 578 170 820 50
242 99 481 110 530 27 126 283 1359 330 1590 22 105 75 363 120 575 44 211 76
388 72 392 -5 5 -350 7 -768 6 l-759 -3 -32 -155 c-18 -85 -46 -220 -62 -300
-86 -416 -106 -510 -111 -510 -3 0 -20 43 -38 96 -134 393 -412 715 -753 873
-284 131 -682 187 -1069 150z m715 -1443 c371 -97 591 -349 683 -781 23 -109
26 -142 26 -360 1 -263 -11 -387 -65 -660 -57 -289 -123 -491 -234 -720 -121
-251 -253 -434 -448 -621 -227 -218 -470 -351 -752 -410 -70 -15 -132 -19
-285 -19 -252 0 -356 22 -530 111 -256 131 -422 377 -486 719 -20 107 -26 376
-12 550 27 336 118 721 242 1018 239 576 677 1017 1143 1152 156 46 232 55
433 51 160 -3 198 -7 285 -30z"/>
<path d="M66359 12967 c-2 -3 -47 -7 -99 -11 -821 -55 -1536 -373 -2124 -946
-549 -535 -925 -1238 -1140 -2130 -100 -413 -166 -994 -152 -1332 38 -928 461
-1565 1246 -1878 358 -143 768 -207 1289 -203 226 1 365 13 579 49 963 160
1845 743 2351 1556 60 96 191 337 191 351 0 4 -370 6 -821 4 l-822 -2 -41 -67
c-137 -225 -369 -397 -671 -497 -170 -56 -331 -81 -524 -81 -267 0 -447 34
-621 116 -319 151 -481 422 -521 871 -11 126 -3 330 20 483 l6 45 2114 5 2114
5 34 150 c113 512 155 878 149 1325 -5 309 -20 455 -72 674 -188 790 -710
1279 -1544 1446 -80 16 -183 34 -230 39 -47 6 -105 13 -130 16 -54 7 -574 17
-581 12z m148 -1357 c245 -32 448 -131 571 -279 145 -174 213 -403 216 -732 2
-91 1 -181 -2 -200 l-4 -34 -1254 3 c-690 1 -1254 4 -1254 7 0 23 116 278 182
397 282 514 690 809 1168 845 41 3 76 6 77 7 6 5 234 -6 300 -14z"/>
</g>
</svg>
